REM DIRINDEX 1\2,1\3
REM DIRNAME folder01,folder02,folder03
TITLE ""
FILE "1261-1280.mp3" MP3
  TRACK 01 AUDIO
    TITLE "0:"
    INDEX 01 00:00:00
  TRACK 02 AUDIO
    TITLE "2:cjc039_1521"
    INDEX 01 00:00:25
  TRACK 03 AUDIO
    TITLE "0:"
    INDEX 01 00:01:36
  TRACK 04 AUDIO
    TITLE "3:cjc039_1522"
    INDEX 01 00:02:16
  TRACK 05 AUDIO
    TITLE "0:"
    INDEX 01 00:05:52
  TRACK 06 AUDIO
    TITLE "2:cjc039_1523"
    INDEX 01 00:07:27
  TRACK 07 AUDIO
    TITLE "0:"
    INDEX 01 00:08:38
  TRACK 08 AUDIO
    TITLE "3:cjc039_1524"
    INDEX 01 00:09:10
  TRACK 09 AUDIO
    TITLE "0:"
    INDEX 01 00:13:04
  TRACK 10 AUDIO
    TITLE "2:cjc039_1525"
    INDEX 01 00:14:54
  TRACK 11 AUDIO
    TITLE "0:"
    INDEX 01 00:15:52
  TRACK 12 AUDIO
    TITLE "3:cjc039_1526"
    INDEX 01 00:16:30
  TRACK 13 AUDIO
    TITLE "0:"
    INDEX 01 00:19:03
  TRACK 14 AUDIO
    TITLE "2:cjc039_1527"
    INDEX 01 00:20:55
  TRACK 15 AUDIO
    TITLE "0:"
    INDEX 01 00:22:01
  TRACK 16 AUDIO
    TITLE "3:cjc039_1528"
    INDEX 01 00:22:50
  TRACK 17 AUDIO
    TITLE "0:"
    INDEX 01 00:26:13
  TRACK 18 AUDIO
    TITLE "2:cjc039_1529"
    INDEX 01 00:27:65
  TRACK 19 AUDIO
    TITLE "0:"
    INDEX 01 00:29:01
  TRACK 20 AUDIO
    TITLE "3:cjc039_1530"
    INDEX 01 00:29:56
  TRACK 21 AUDIO
    TITLE "0:"
    INDEX 01 00:33:17
  TRACK 22 AUDIO
    TITLE "2:cjc039_1531"
    INDEX 01 00:34:69
  TRACK 23 AUDIO
    TITLE "0:"
    INDEX 01 00:36:29
  TRACK 24 AUDIO
    TITLE "3:cjc039_1532"
    INDEX 01 00:37:07
  TRACK 25 AUDIO
    TITLE "0:"
    INDEX 01 00:40:38
  TRACK 26 AUDIO
    TITLE "2:cjc039_1533"
    INDEX 01 00:42:14
  TRACK 27 AUDIO
    TITLE "0:"
    INDEX 01 00:43:19
  TRACK 28 AUDIO
    TITLE "3:cjc039_1534"
    INDEX 01 00:44:01
  TRACK 29 AUDIO
    TITLE "0:"
    INDEX 01 00:47:09
  TRACK 30 AUDIO
    TITLE "2:cjc039_1535"
    INDEX 01 00:48:59
  TRACK 31 AUDIO
    TITLE "0:"
    INDEX 01 00:50:05
  TRACK 32 AUDIO
    TITLE "3:cjc039_1536"
    INDEX 01 00:50:54
  TRACK 33 AUDIO
    TITLE "0:"
    INDEX 01 00:53:43
  TRACK 34 AUDIO
    TITLE "2:cjc039_1537"
    INDEX 01 00:55:20
  TRACK 35 AUDIO
    TITLE "0:"
    INDEX 01 00:56:43
  TRACK 36 AUDIO
    TITLE "3:cjc039_1538"
    INDEX 01 00:57:21
  TRACK 37 AUDIO
    TITLE "0:"
    INDEX 01 01:00:70
  TRACK 38 AUDIO
    TITLE "2:cjc039_1539"
    INDEX 01 01:02:46
  TRACK 39 AUDIO
    TITLE "0:"
    INDEX 01 01:04:01
  TRACK 40 AUDIO
    TITLE "3:cjc039_1540"
    INDEX 01 01:04:52
  TRACK 41 AUDIO
    TITLE "0:"
    INDEX 01 01:08:70
  TRACK 42 AUDIO
    TITLE "2:cjc039_1541"
    INDEX 01 01:10:45
  TRACK 43 AUDIO
    TITLE "0:"
    INDEX 01 01:11:54
  TRACK 44 AUDIO
    TITLE "3:cjc039_1542"
    INDEX 01 01:12:32
  TRACK 45 AUDIO
    TITLE "0:"
    INDEX 01 01:15:46
  TRACK 46 AUDIO
    TITLE "2:cjc039_1543"
    INDEX 01 01:17:22
  TRACK 47 AUDIO
    TITLE "0:"
    INDEX 01 01:18:45
  TRACK 48 AUDIO
    TITLE "3:cjc039_1544"
    INDEX 01 01:19:23
  TRACK 49 AUDIO
    TITLE "0:"
    INDEX 01 01:23:16
  TRACK 50 AUDIO
    TITLE "2:cjc039_1545"
    INDEX 01 01:24:67
  TRACK 51 AUDIO
    TITLE "0:"
    INDEX 01 01:25:68
  TRACK 52 AUDIO
    TITLE "3:cjc039_1546"
    INDEX 01 01:26:42
  TRACK 53 AUDIO
    TITLE "0:"
    INDEX 01 01:29:64
  TRACK 54 AUDIO
    TITLE "2:cjc039_1547"
    INDEX 01 01:31:41
  TRACK 55 AUDIO
    TITLE "0:"
    INDEX 01 01:32:62
  TRACK 56 AUDIO
    TITLE "3:cjc039_1548"
    INDEX 01 01:33:40
  TRACK 57 AUDIO
    TITLE "0:"
    INDEX 01 01:36:72
  TRACK 58 AUDIO
    TITLE "2:cjc039_1549"
    INDEX 01 01:38:49
  TRACK 59 AUDIO
    TITLE "0:"
    INDEX 01 01:39:66
  TRACK 60 AUDIO
    TITLE "3:cjc039_1550"
    INDEX 01 01:40:48
  TRACK 61 AUDIO
    TITLE "0:"
    INDEX 01 01:44:13
  TRACK 62 AUDIO
    TITLE "2:cjc039_1551"
    INDEX 01 01:45:59
  TRACK 63 AUDIO
    TITLE "0:"
    INDEX 01 01:47:27
  TRACK 64 AUDIO
    TITLE "3:cjc039_1552"
    INDEX 01 01:48:03
  TRACK 65 AUDIO
    TITLE "0:"
    INDEX 01 01:52:20
  TRACK 66 AUDIO
    TITLE "2:cjc039_1553"
    INDEX 01 01:53:67
  TRACK 67 AUDIO
    TITLE "0:"
    INDEX 01 01:54:64
  TRACK 68 AUDIO
    TITLE "3:cjc039_1554"
    INDEX 01 01:55:40
  TRACK 69 AUDIO
    TITLE "0:"
    INDEX 01 01:59:30
  TRACK 70 AUDIO
    TITLE "2:cjc039_1555"
    INDEX 01 02:01:13
  TRACK 71 AUDIO
    TITLE "0:"
    INDEX 01 02:02:36
  TRACK 72 AUDIO
    TITLE "3:cjc039_1556"
    INDEX 01 02:03:12
  TRACK 73 AUDIO
    TITLE "0:"
    INDEX 01 02:06:55
  TRACK 74 AUDIO
    TITLE "2:cjc039_1557"
    INDEX 01 02:08:35
  TRACK 75 AUDIO
    TITLE "0:"
    INDEX 01 02:09:42
  TRACK 76 AUDIO
    TITLE "3:cjc039_1558"
    INDEX 01 02:10:20
  TRACK 77 AUDIO
    TITLE "0:"
    INDEX 01 02:13:34
  TRACK 78 AUDIO
    TITLE "2:cjc039_1559"
    INDEX 01 02:15:15
  TRACK 79 AUDIO
    TITLE "0:"
    INDEX 01 02:16:52
  TRACK 80 AUDIO
    TITLE "3:cjc039_1560"
    INDEX 01 02:17:28
  TRACK 81 AUDIO
    TITLE "0:"
    INDEX 01 02:22:31
